<svg width="517" height="73" viewBox="0 0 517 73" fill="none" xmlns="http://www.w3.org/2000/svg">
<path d="M82.8781 29.5711C82.0444 28.0425 80.898 26.8788 79.4389 26.0798C77.9799 25.2808 76.2777 24.8813 74.3323 24.8813C72.1785 24.8813 70.2678 25.3676 68.6004 26.3403C66.9329 27.313 65.6302 28.7026 64.6922 30.509C63.7543 32.3154 63.2853 34.3998 63.2853 36.762C63.2853 39.1938 63.7543 41.3128 64.6922 43.1193C65.6649 44.9257 67.0024 46.3152 68.7046 47.2879C70.4068 48.2606 72.3869 48.747 74.6449 48.747C77.4241 48.747 79.6995 48.0175 81.4712 46.5584C83.2428 45.0646 84.4066 42.9977 84.9624 40.3575H72.4564V34.7819H92.1534V41.1391C91.6671 43.6751 90.6249 46.02 89.0269 48.1738C87.4289 50.3276 85.3619 52.0646 82.826 53.3846C80.3248 54.67 77.5109 55.3127 74.3844 55.3127C70.8758 55.3127 67.6971 54.531 64.8485 52.9678C62.0347 51.3698 59.8114 49.1638 58.1787 46.35C56.5807 43.5361 55.7817 40.3401 55.7817 36.762C55.7817 33.1839 56.5807 29.9879 58.1787 27.1741C59.8114 24.3255 62.0347 22.1195 64.8485 20.5563C67.6971 18.9583 70.8584 18.1593 74.3323 18.1593C78.4315 18.1593 81.9922 19.1667 85.0145 21.1816C88.0368 23.1617 90.1212 25.9582 91.2676 29.5711H82.8781ZM121.13 39.9406C121.13 40.9828 121.06 41.9208 120.921 42.7545H99.8174C99.9911 44.8388 100.721 46.4716 102.006 47.6527C103.291 48.8338 104.872 49.4244 106.748 49.4244C109.457 49.4244 111.386 48.2606 112.532 45.9331H120.4C119.567 48.7122 117.969 51.005 115.606 52.8114C113.244 54.5831 110.343 55.469 106.904 55.469C104.125 55.469 101.624 54.861 99.4005 53.6452C97.212 52.3946 95.4924 50.6403 94.2418 48.3822C93.0259 46.1242 92.418 43.5188 92.418 40.5659C92.418 37.5784 93.0259 34.9556 94.2418 32.6976C95.4577 30.4395 97.1599 28.7026 99.3484 27.4867C101.537 26.2708 104.056 25.6629 106.904 25.6629C109.649 25.6629 112.098 26.2535 114.251 27.4346C116.44 28.6157 118.125 30.3006 119.306 32.4891C120.522 34.6429 121.13 37.1268 121.13 39.9406ZM113.574 37.8563C113.539 35.9804 112.862 34.4866 111.542 33.375C110.222 32.2286 108.606 31.6554 106.696 31.6554C104.889 31.6554 103.361 32.2112 102.11 33.3229C100.894 34.3998 100.147 35.9109 99.8695 37.8563H113.574ZM131.692 32.1244V46.0894C131.692 47.0621 131.917 47.7743 132.369 48.2259C132.855 48.6428 133.654 48.8512 134.766 48.8512H138.153V55H133.567C127.419 55 124.344 52.0124 124.344 46.0373V32.1244H120.905V26.1319H124.344V18.993H131.692V26.1319H138.153V32.1244H131.692ZM153.003 22.6927C151.717 22.6927 150.64 22.2932 149.772 21.4942C148.938 20.6605 148.521 19.6357 148.521 18.4198C148.521 17.204 148.938 16.1965 149.772 15.3975C150.64 14.5638 151.717 14.1469 153.003 14.1469C154.288 14.1469 155.348 14.5638 156.181 15.3975C157.05 16.1965 157.484 17.204 157.484 18.4198C157.484 19.6357 157.05 20.6605 156.181 21.4942C155.348 22.2932 154.288 22.6927 153.003 22.6927ZM156.598 26.1319V55H149.303V26.1319H156.598ZM169.043 32.1244V46.0894C169.043 47.0621 169.269 47.7743 169.72 48.2259C170.207 48.6428 171.006 48.8512 172.117 48.8512H175.504V55H170.919C164.77 55 161.695 52.0124 161.695 46.0373V32.1244H158.256V26.1319H161.695V18.993H169.043V26.1319H175.504V32.1244H169.043ZM184.778 40.4617C184.778 37.5437 185.351 34.9556 186.498 32.6976C187.679 30.4395 189.26 28.7026 191.24 27.4867C193.255 26.2708 195.495 25.6629 197.962 25.6629C200.116 25.6629 201.991 26.0972 203.589 26.9656C205.222 27.8341 206.525 28.9284 207.498 30.2485V26.1319H214.845V55H207.498V50.7792C206.56 52.134 205.257 53.263 203.589 54.1663C201.957 55.0347 200.063 55.469 197.91 55.469C195.478 55.469 193.255 54.8437 191.24 53.5931C189.26 52.3425 187.679 50.5881 186.498 48.3301C185.351 46.0373 184.778 43.4145 184.778 40.4617ZM207.498 40.5659C207.498 38.7943 207.15 37.2831 206.455 36.0325C205.761 34.7472 204.823 33.7745 203.642 33.1144C202.46 32.4196 201.192 32.0723 199.838 32.0723C198.483 32.0723 197.232 32.4023 196.086 33.0623C194.939 33.7224 194.002 34.6951 193.272 35.9804C192.577 37.231 192.23 38.7248 192.23 40.4617C192.23 42.1987 192.577 43.7272 193.272 45.0473C194.002 46.3326 194.939 47.3227 196.086 48.0175C197.267 48.7122 198.518 49.0596 199.838 49.0596C201.192 49.0596 202.46 48.7296 203.642 48.0696C204.823 47.3748 205.761 46.4021 206.455 45.1515C207.15 43.8662 207.498 42.3376 207.498 40.5659ZM226.008 16.4397V55H218.713V16.4397H226.008ZM237.254 16.4397V55H229.959V16.4397H237.254ZM254.065 22.6927C252.779 22.6927 251.702 22.2932 250.834 21.4942C250 20.6605 249.583 19.6357 249.583 18.4198C249.583 17.204 250 16.1965 250.834 15.3975C251.702 14.5638 252.779 14.1469 254.065 14.1469C255.35 14.1469 256.41 14.5638 257.243 15.3975C258.112 16.1965 258.546 17.204 258.546 18.4198C258.546 19.6357 258.112 20.6605 257.243 21.4942C256.41 22.2932 255.35 22.6927 254.065 22.6927ZM257.66 26.1319V55H250.365V26.1319H257.66ZM277.608 25.715C281.048 25.715 283.827 26.8093 285.946 28.9979C288.065 31.1517 289.124 34.174 289.124 38.0647V55H281.829V39.0548C281.829 36.762 281.256 35.0077 280.11 33.7918C278.963 32.5412 277.4 31.9159 275.42 31.9159C273.405 31.9159 271.807 32.5412 270.626 33.7918C269.479 35.0077 268.906 36.762 268.906 39.0548V55H261.611V26.1319H268.906V29.7274C269.879 28.4768 271.112 27.5041 272.606 26.8093C274.134 26.0798 275.802 25.715 277.608 25.715ZM305.664 22.6927C304.344 22.6927 303.25 22.2932 302.381 21.4942C301.548 20.6605 301.131 19.6357 301.131 18.4198C301.131 17.204 301.548 16.1965 302.381 15.3975C303.25 14.5638 304.344 14.1469 305.664 14.1469C306.95 14.1469 308.009 14.5638 308.843 15.3975C309.677 16.1965 310.094 17.204 310.094 18.4198C310.094 19.6357 309.677 20.6605 308.843 21.4942C308.009 22.2932 306.95 22.6927 305.664 22.6927ZM309.26 59.7419C309.26 62.9379 308.461 65.2306 306.863 66.6202C305.3 68.0445 303.042 68.7566 300.089 68.7566H296.858V62.5557H298.942C300.054 62.5557 300.836 62.3299 301.287 61.8783C301.739 61.4615 301.965 60.7667 301.965 59.794V26.1319H309.26V59.7419ZM340.463 26.1319V55H333.116V51.3524C332.178 52.603 330.945 53.5931 329.416 54.3226C327.923 55.0174 326.29 55.3648 324.518 55.3648C322.26 55.3648 320.263 54.8958 318.526 53.9578C316.789 52.9851 315.417 51.5782 314.409 49.737C313.436 47.8611 312.95 45.6378 312.95 43.0672V26.1319H320.245V42.025C320.245 44.3178 320.819 46.0894 321.965 47.3401C323.111 48.5559 324.675 49.1638 326.655 49.1638C328.67 49.1638 330.25 48.5559 331.397 47.3401C332.543 46.0894 333.116 44.3178 333.116 42.025V26.1319H340.463ZM355.452 55.469C353.089 55.469 350.97 55.0521 349.094 54.2184C347.218 53.3499 345.725 52.1861 344.613 50.7271C343.536 49.2681 342.945 47.6527 342.841 45.881H350.189C350.328 46.9927 350.866 47.9132 351.804 48.6428C352.777 49.3723 353.975 49.737 355.399 49.737C356.789 49.737 357.866 49.4591 358.63 48.9033C359.429 48.3475 359.829 47.6353 359.829 46.7669C359.829 45.8289 359.342 45.1341 358.37 44.6825C357.432 44.1962 355.92 43.6751 353.836 43.1193C351.682 42.5982 349.911 42.0597 348.521 41.5039C347.166 40.9481 345.985 40.097 344.978 38.9506C344.005 37.8042 343.519 36.2583 343.519 34.3129C343.519 32.7149 343.97 31.2559 344.873 29.9358C345.811 28.6157 347.132 27.5736 348.834 26.8093C350.571 26.045 352.603 25.6629 354.93 25.6629C358.37 25.6629 361.114 26.5314 363.164 28.2683C365.213 29.9706 366.342 32.2807 366.551 35.1988H359.568C359.464 34.0524 358.978 33.1492 358.109 32.4891C357.275 31.7943 356.146 31.447 354.722 31.447C353.402 31.447 352.377 31.6901 351.648 32.1765C350.953 32.6628 350.605 33.3402 350.605 34.2087C350.605 35.1814 351.092 35.9283 352.064 36.4494C353.037 36.9357 354.548 37.4394 356.598 37.9605C358.682 38.4816 360.402 39.0201 361.757 39.5759C363.111 40.1317 364.275 41.0002 365.248 42.1813C366.255 43.3277 366.776 44.8562 366.811 46.7669C366.811 48.4343 366.342 49.9281 365.404 51.2482C364.501 52.5683 363.181 53.6104 361.444 54.3747C359.742 55.1042 357.744 55.469 355.452 55.469ZM378.036 32.1244V46.0894C378.036 47.0621 378.262 47.7743 378.714 48.2259C379.2 48.6428 379.999 48.8512 381.111 48.8512H384.498V55H379.912C373.764 55 370.689 52.0124 370.689 46.0373V32.1244H367.25V26.1319H370.689V18.993L378.036 18.993V26.1319H384.498V32.1244H378.036ZM421.598 44.5262C421.598 46.3326 421.129 48.0348 420.191 49.6328C419.288 51.1961 417.933 52.4988 416.127 53.541C414.355 54.5484 412.253 55.139 409.821 55.3127V59.5334H406.486V55.2605C403.013 54.9479 400.216 53.9057 398.097 52.134C395.978 50.3276 394.884 47.8959 394.814 44.8388H402.63C402.839 47.3401 404.124 48.8512 406.486 49.3723V39.4196C403.985 38.7943 401.97 38.169 400.442 37.5437C398.913 36.9184 397.593 35.9109 396.482 34.5214C395.37 33.1318 394.814 31.2385 394.814 28.8415C394.814 25.8192 395.891 23.3528 398.045 21.4421C400.233 19.5315 403.047 18.4372 406.486 18.1593V13.9385H409.821V18.1593C413.156 18.4372 415.814 19.4446 417.794 21.1816C419.809 22.9185 420.938 25.3155 421.181 28.3726H413.313C413.208 27.3651 412.844 26.4967 412.218 25.7671C411.628 25.0029 410.829 24.4644 409.821 24.1518V34.0003C412.427 34.6603 414.476 35.303 415.97 35.9283C417.499 36.5189 418.819 37.5089 419.93 38.8985C421.042 40.2533 421.598 42.1292 421.598 44.5262ZM402.422 28.4768C402.422 29.6232 402.769 30.5611 403.464 31.2906C404.159 31.9854 405.166 32.5586 406.486 33.0102V23.9954C405.236 24.1691 404.246 24.6381 403.516 25.4024C402.787 26.1666 402.422 27.1914 402.422 28.4768ZM409.821 49.4765C411.142 49.2333 412.166 48.6949 412.896 47.8611C413.66 47.0274 414.042 46.02 414.042 44.8388C414.042 43.6925 413.677 42.7719 412.948 42.0771C412.218 41.3823 411.176 40.8091 409.821 40.3575V49.4765ZM425.339 47.6006V41.8687L442.379 17.4819H450.872V41.2434H455.458V47.6006H450.872V55H443.577V47.6006L425.339 47.6006ZM444.046 25.2982L433.364 41.2434L444.046 41.2434V25.2982ZM465.287 44.3178C465.565 45.8463 466.191 47.0274 467.163 47.8611C468.171 48.6601 469.508 49.0596 471.176 49.0596C473.329 49.0596 474.893 48.1738 475.865 46.4021C476.838 44.5957 477.324 41.5734 477.324 37.3352C476.525 38.4469 475.396 39.3153 473.937 39.9406C472.513 40.5659 470.967 40.8786 469.3 40.8786C467.076 40.8786 465.062 40.427 463.255 39.5238C461.483 38.5858 460.076 37.2136 459.034 35.4072C457.992 33.566 457.471 31.3427 457.471 28.7373C457.471 24.8813 458.617 21.8243 460.91 19.5662C463.203 17.2734 466.329 16.1271 470.29 16.1271C475.223 16.1271 478.697 17.7077 480.711 20.8689C482.761 24.0302 483.786 28.7894 483.786 35.1467C483.786 39.6627 483.386 43.3624 482.587 46.2458C481.823 49.1291 480.486 51.3177 478.575 52.8114C476.699 54.3052 474.128 55.0521 470.863 55.0521C468.292 55.0521 466.104 54.5658 464.297 53.5931C462.491 52.5856 461.101 51.2829 460.129 49.6849C459.191 48.0522 458.652 46.2631 458.513 44.3178H465.287ZM470.811 34.9382C472.617 34.9382 474.042 34.3824 475.084 33.2708C476.126 32.1591 476.647 30.6653 476.647 28.7894C476.647 26.7398 476.091 25.1592 474.979 24.0476C473.903 22.9012 472.426 22.328 470.55 22.328C468.674 22.328 467.181 22.9185 466.069 24.0997C464.992 25.246 464.454 26.7746 464.454 28.6852C464.454 30.5264 464.975 32.0375 466.017 33.2186C467.094 34.365 468.692 34.9382 470.811 34.9382ZM494.649 44.3178C494.927 45.8463 495.552 47.0274 496.525 47.8611C497.533 48.6601 498.87 49.0596 500.537 49.0596C502.691 49.0596 504.255 48.1738 505.227 46.4021C506.2 44.5957 506.686 41.5734 506.686 37.3352C505.887 38.4469 504.758 39.3153 503.299 39.9406C501.875 40.5659 500.329 40.8786 498.662 40.8786C496.438 40.8786 494.423 40.427 492.617 39.5238C490.845 38.5858 489.438 37.2136 488.396 35.4072C487.354 33.566 486.833 31.3427 486.833 28.7373C486.833 24.8813 487.979 21.8243 490.272 19.5662C492.565 17.2734 495.691 16.1271 499.652 16.1271C504.585 16.1271 508.058 17.7077 510.073 20.8689C512.123 24.0302 513.148 28.7894 513.148 35.1467C513.148 39.6627 512.748 43.3624 511.949 46.2458C511.185 49.1291 509.848 51.3177 507.937 52.8114C506.061 54.3052 503.49 55.0521 500.225 55.0521C497.654 55.0521 495.466 54.5658 493.659 53.5931C491.853 52.5856 490.463 51.2829 489.49 49.6849C488.552 48.0522 488.014 46.2631 487.875 44.3178H494.649ZM500.173 34.9382C501.979 34.9382 503.403 34.3824 504.446 33.2708C505.488 32.1591 506.009 30.6653 506.009 28.7894C506.009 26.7398 505.453 25.1592 504.341 24.0476C503.264 22.9012 501.788 22.328 499.912 22.328C498.036 22.328 496.542 22.9185 495.431 24.0997C494.354 25.246 493.815 26.7746 493.815 28.6852C493.815 30.5264 494.337 32.0375 495.379 33.2186C496.456 34.365 498.054 34.9382 500.173 34.9382Z" fill="#2FC681"/>
<path fill-rule="evenodd" clip-rule="evenodd" d="M21.6592 35.674C25.2691 30.3314 21.6592 23.0394 19.8543 21.2345C19.8543 26.7179 16.6541 29.7917 14.4395 32.0641C12.2266 34.3383 10.8296 37.9121 10.8296 41.0888C10.8296 47.0699 15.6782 51.9184 21.6592 51.9184C27.6403 51.9184 32.4888 47.0699 32.4888 41.0888C32.4888 38.3237 30.5828 33.9774 28.879 32.0641C25.6554 37.4789 23.8414 37.4789 21.6592 35.674Z" fill="#2FC681" stroke="#2FC681" stroke-width="2.70741" stroke-linecap="round" stroke-linejoin="round"/>
</svg>
