<svg width="57" height="57" viewBox="0 0 57 57" fill="none" xmlns="http://www.w3.org/2000/svg">
<circle cx="28.5" cy="28.5" r="28.5" fill="white"/>
<path fill-rule="evenodd" clip-rule="evenodd" d="M34.802 33.292C34.802 33.292 34.879 33.237 35.002 33.143C36.845 31.718 38 29.653 38 27.354C38 23.068 33.97 19.59 29.002 19.59C24.032 19.59 20 23.068 20 27.354C20 31.642 24.03 35 29 35C29.424 35 30.12 34.972 31.088 34.916C32.35 35.736 34.192 36.409 35.804 36.409C36.303 36.409 36.538 35.999 36.218 35.581C35.732 34.985 35.062 34.03 34.802 33.291V33.292Z" stroke="#2FC681" stroke-width="1.5" stroke-linecap="round" stroke-linejoin="round"/>
<path d="M24.5 29.5C27 32 31 32 33.5 29.5" stroke="#2FC681" stroke-width="1.5" stroke-linecap="round" stroke-linejoin="round"/>
</svg>
