<svg width="57" height="57" viewBox="0 0 57 57" fill="none" xmlns="http://www.w3.org/2000/svg">
<circle cx="28.5" cy="28.5" r="28.5" fill="white"/>
<path fill-rule="evenodd" clip-rule="evenodd" d="M28.9739 35.4866C28.6824 35.333 28.334 35.3329 28.0423 35.4862L23.1526 38.057C22.419 38.4427 21.5615 37.8197 21.7017 37.0028L22.6357 31.5575C22.6914 31.2328 22.5837 30.9016 22.3477 30.6718L18.387 26.8165C17.7927 26.2381 18.1203 25.2292 18.9411 25.1103L24.405 24.3184C24.7309 24.2712 25.0126 24.0666 25.1583 23.7713L27.6034 18.817C27.9702 18.0738 29.03 18.0738 29.3968 18.817L31.8419 23.7713C31.9876 24.0666 32.2694 24.2712 32.5952 24.3184L38.0591 25.1103C38.8799 25.2292 39.2075 26.2381 38.6132 26.8165L34.6526 30.6718C34.4165 30.9016 34.3088 31.2328 34.3645 31.5575L35.2982 37.0005C35.4384 37.8178 34.58 38.4408 33.8464 38.0542L28.9739 35.4866Z" fill="#2FC681"/>
</svg>
