<svg width="57" height="57" viewBox="0 0 57 57" fill="none" xmlns="http://www.w3.org/2000/svg">
<circle cx="28.5" cy="28.5" r="28.5" fill="white"/>
<path d="M33.382 23.842H34.132H33.382ZM23.618 23.842H22.868H23.618ZM19.5 31.96L19.1993 31.2729C18.9267 31.3922 18.7504 31.6613 18.75 31.9589C18.7496 32.2565 18.9251 32.5261 19.1974 32.6462L19.5 31.96ZM22.5 34.96L21.8218 35.2802C21.9457 35.5426 22.2098 35.71 22.5 35.71V34.96ZM34.5 34.96V35.71C34.7902 35.71 35.0543 35.5426 35.1782 35.2802L34.5 34.96ZM37.5 31.96L37.8026 32.6462C38.0749 32.5261 38.2504 32.2564 38.25 31.9589C38.2496 31.6613 38.0732 31.3921 37.8006 31.2729L37.5 31.96ZM19.149 31.2981C18.783 31.492 18.6434 31.9459 18.8372 32.3119C19.031 32.678 19.4849 32.8176 19.851 32.6238L19.149 31.2981ZM21.0303 24.3126C20.7374 24.0197 20.2626 24.0197 19.9697 24.3126C19.6768 24.6055 19.6768 25.0804 19.9697 25.3733L21.0303 24.3126ZM37.149 32.6238C37.5151 32.8176 37.969 32.678 38.1628 32.3119C38.3567 31.9459 38.217 31.492 37.851 31.2981L37.149 32.6238ZM37.0303 25.3733C37.3232 25.0804 37.3232 24.6055 37.0303 24.3126C36.7374 24.0197 36.2626 24.0197 35.9697 24.3126L37.0303 25.3733ZM34.132 23.842C34.132 20.7315 31.6105 18.21 28.5 18.21V19.71C30.782 19.71 32.632 21.5599 32.632 23.842H34.132ZM28.5 18.21C25.3895 18.21 22.868 20.7315 22.868 23.842H24.368C24.368 21.5599 26.218 19.71 28.5 19.71V18.21ZM22.868 23.842C22.868 26.0088 22.8046 27.453 22.3325 28.5706C21.8903 29.6174 21.0438 30.4656 19.1993 31.2729L19.8007 32.647C21.8612 31.7453 23.0737 30.671 23.7143 29.1543C24.3249 27.7085 24.368 25.9482 24.368 23.842H22.868ZM19.1974 32.6462C20.25 33.1104 20.592 33.2742 20.8447 33.5268C21.105 33.7871 21.2965 34.1677 21.8218 35.2802L23.1782 34.6397C22.7035 33.6342 22.395 32.9558 21.9053 32.4661C21.408 31.9688 20.75 31.6915 19.8026 31.2737L19.1974 32.6462ZM22.5 35.71C23.8061 35.71 24.6693 36.1348 25.5029 36.6111C26.3068 37.0705 27.2549 37.71 28.5 37.71V36.21C27.7451 36.21 27.1932 35.8494 26.2471 35.3088C25.3307 34.7851 24.1939 34.21 22.5 34.21V35.71ZM28.5 37.71C29.7451 37.71 30.6932 37.0705 31.4971 36.6111C32.3307 36.1348 33.1939 35.71 34.5 35.71V34.21C32.8061 34.21 31.6693 34.7851 30.7529 35.3088C29.8068 35.8494 29.2549 36.21 28.5 36.21V37.71ZM35.1782 35.2802C35.7035 34.1677 35.895 33.7871 36.1553 33.5268C36.408 33.2742 36.75 33.1104 37.8026 32.6462L37.1974 31.2737C36.25 31.6915 35.592 31.9688 35.0947 32.4661C34.605 32.9558 34.2965 33.6342 33.8218 34.6397L35.1782 35.2802ZM37.8006 31.2729C35.9556 30.4656 35.1092 29.6174 34.6672 28.5707C34.1952 27.453 34.132 26.0089 34.132 23.842H32.632C32.632 25.9481 32.6748 27.7084 33.2853 29.1542C33.9258 30.671 35.1384 31.7453 37.1994 32.6471L37.8006 31.2729ZM19.851 32.6238C21.8703 31.5546 23.2007 30.3633 23.3705 28.8145C23.5373 27.2939 22.5329 25.8152 21.0303 24.3126L19.9697 25.3733C21.4671 26.8707 21.9627 27.892 21.8795 28.6509C21.7993 29.3816 21.1297 30.2494 19.149 31.2981L19.851 32.6238ZM37.851 31.2981C35.8703 30.2494 35.2007 29.3816 35.1205 28.6509C35.0373 27.892 35.5329 26.8707 37.0303 25.3733L35.9697 24.3126C34.4671 25.8152 33.4627 27.2939 33.6295 28.8145C33.7993 30.3633 35.1297 31.5546 37.149 32.6238L37.851 31.2981Z" fill="#2FC681"/>
</svg>
