<svg width="29" height="29" viewBox="0 0 29 29" fill="none" xmlns="http://www.w3.org/2000/svg">
<path d="M15.7082 3.625H9.90817C8.55472 3.625 7.87798 3.625 7.36103 3.8884C6.9063 4.12009 6.53659 4.48979 6.30491 4.94452C6.0415 5.46147 6.0415 6.13821 6.0415 7.49167V21.5083C6.0415 22.8618 6.0415 23.5386 6.30491 24.0555C6.53659 24.5102 6.9063 24.8799 7.36103 25.1116C7.87798 25.375 8.55472 25.375 9.90817 25.375H13.2915M15.7082 3.625L22.9582 10.875M15.7082 3.625V8.94167C15.7082 9.61839 15.7082 9.95676 15.8399 10.2152C15.9558 10.4426 16.1405 10.6274 16.3679 10.7433C16.6264 10.875 16.9647 10.875 17.6415 10.875H22.9582M22.9582 10.875V13.2917M21.1428 18.9852C20.2972 18.0438 18.8872 17.7905 17.8277 18.6527C16.7684 19.5147 16.6191 20.9561 17.4512 21.9757C17.9209 22.5514 19.0369 23.5604 19.9197 24.3302C20.3384 24.6952 20.5477 24.8778 20.8009 24.9524C21.0169 25.0161 21.2687 25.0161 21.4846 24.9524C21.7379 24.8778 21.9472 24.6952 22.3658 24.3302C23.2487 23.5604 24.3647 22.5514 24.8343 21.9757C25.6664 20.9561 25.5354 19.5056 24.4578 18.6527C23.3801 17.7996 21.9884 18.0438 21.1428 18.9852Z" stroke="#2F3030" stroke-width="2.41667" stroke-linecap="round" stroke-linejoin="round"/>
</svg>
