<svg width="711" height="56" viewBox="0 0 711 56" fill="none" xmlns="http://www.w3.org/2000/svg">
<path d="M32.2609 5.48082V42H23.3652V26.9658H9.52747V42H0.631774V5.48082H9.52747V19.7868H23.3652V5.48082H32.2609ZM64.0953 12.9719V42H55.1996V38.0464C54.2979 39.3296 53.0667 40.37 51.5061 41.1677C49.9801 41.9306 48.2807 42.3121 46.408 42.3121C44.1884 42.3121 42.2289 41.8266 40.5295 40.8555C38.8301 39.8498 37.5123 38.4105 36.5759 36.5377C35.6395 34.665 35.1713 32.4627 35.1713 29.931V12.9719H44.015V28.7345C44.015 30.6766 44.5178 32.1853 45.5236 33.2604C46.5293 34.3355 47.8819 34.873 49.5813 34.873C51.3153 34.873 52.6852 34.3355 53.691 33.2604C54.6967 32.1853 55.1996 30.6766 55.1996 28.7345V12.9719H64.0953ZM76.1294 17.8099C77.1698 16.2146 78.4703 14.9661 80.031 14.0644C81.5916 13.128 83.3257 12.6598 85.2332 12.6598V22.0757H82.7881C80.5685 22.0757 78.9039 22.5613 77.7941 23.5323C76.6843 24.4687 76.1294 26.1334 76.1294 28.5264V42H67.2337V12.9719H76.1294V17.8099ZM95.1295 17.8099C96.1699 16.2146 97.4704 14.9661 99.0311 14.0644C100.592 13.128 102.326 12.6598 104.233 12.6598V22.0757H101.788C99.5686 22.0757 97.9039 22.5613 96.7941 23.5323C95.6844 24.4687 95.1295 26.1334 95.1295 28.5264V42H86.2338V12.9719H95.1295V17.8099ZM134.886 12.9719L116.679 55.7857H107.107L113.765 41.0116L101.956 12.9719H111.893L118.603 31.1275L125.262 12.9719H134.886ZM151.364 5.48082V27.3299C151.364 29.5148 151.902 31.1968 152.977 32.376C154.052 33.5552 155.63 34.1447 157.711 34.1447C159.792 34.1447 161.387 33.5552 162.497 32.376C163.606 31.1968 164.161 29.5148 164.161 27.3299V5.48082H173.057V27.2779C173.057 30.5379 172.363 33.295 170.976 35.5493C169.589 37.8036 167.716 39.503 165.358 40.6474C163.034 41.7919 160.433 42.3642 157.555 42.3642C154.676 42.3642 152.092 41.8093 149.803 40.6995C147.549 39.555 145.763 37.8556 144.445 35.6013C143.127 33.3124 142.468 30.5379 142.468 27.2779V5.48082H151.364ZM184.948 17.0816C185.815 15.7291 187.012 14.6366 188.538 13.8043C190.063 12.9719 191.85 12.5558 193.896 12.5558C196.289 12.5558 198.456 13.1627 200.398 14.3765C202.341 15.5904 203.867 17.3244 204.976 19.5787C206.121 21.8329 206.693 24.4514 206.693 27.4339C206.693 30.4165 206.121 33.0523 204.976 35.3412C203.867 37.5955 202.341 39.3469 200.398 40.5954C198.456 41.8093 196.289 42.4162 193.896 42.4162C191.884 42.4162 190.098 42 188.538 41.1677C187.012 40.3353 185.815 39.2602 184.948 37.9423V55.8378H176.052V12.9719H184.948V17.0816ZM197.641 27.4339C197.641 25.2144 197.017 23.4803 195.769 22.2318C194.555 20.9486 193.046 20.307 191.243 20.307C189.474 20.307 187.965 20.9486 186.717 22.2318C185.503 23.515 184.896 25.2664 184.896 27.486C184.896 29.7056 185.503 31.457 186.717 32.7402C187.965 34.0234 189.474 34.665 191.243 34.665C193.011 34.665 194.52 34.0234 195.769 32.7402C197.017 31.4223 197.641 29.6535 197.641 27.4339ZM219.813 4.18028L218.773 29.0986H211.23L210.189 4.18028H219.813ZM215.132 42.4162C213.571 42.4162 212.288 41.9653 211.282 41.0636C210.311 40.1272 209.825 38.9827 209.825 37.6302C209.825 36.2429 210.311 35.0811 211.282 34.1447C212.288 33.2083 213.571 32.7402 215.132 32.7402C216.658 32.7402 217.906 33.2083 218.877 34.1447C219.883 35.0811 220.386 36.2429 220.386 37.6302C220.386 38.9827 219.883 40.1272 218.877 41.0636C217.906 41.9653 216.658 42.4162 215.132 42.4162ZM259.273 5.48082V12.6078H249.597V42H240.701V12.6078H231.025V5.48082H259.273ZM278.329 12.6598C281.659 12.6598 284.329 13.7696 286.341 15.9892C288.352 18.1741 289.358 21.1914 289.358 25.041V42H280.514V26.2374C280.514 24.2953 280.011 22.7867 279.006 21.7116C278 20.6365 276.647 20.0989 274.948 20.0989C273.249 20.0989 271.896 20.6365 270.89 21.7116C269.884 22.7867 269.382 24.2953 269.382 26.2374V42H260.486V3.504H269.382V16.8736C270.283 15.5904 271.514 14.5673 273.075 13.8043C274.636 13.0413 276.387 12.6598 278.329 12.6598ZM296.762 9.95468C295.201 9.95468 293.918 9.50382 292.912 8.60212C291.941 7.66573 291.456 6.52125 291.456 5.16869C291.456 3.78145 291.941 2.63697 292.912 1.73526C293.918 0.798873 295.201 0.330678 296.762 0.330678C298.288 0.330678 299.536 0.798873 300.508 1.73526C301.513 2.63697 302.016 3.78145 302.016 5.16869C302.016 6.52125 301.513 7.66573 300.508 8.60212C299.536 9.50382 298.288 9.95468 296.762 9.95468ZM301.184 12.9719V42H292.288V12.9719H301.184ZM316.188 42.4162C313.656 42.4162 311.402 41.9827 309.425 41.1156C307.448 40.2486 305.888 39.0694 304.743 37.5782C303.599 36.0522 302.957 34.3528 302.818 32.48H311.61C311.714 33.4858 312.182 34.3008 313.015 34.9251C313.847 35.5493 314.87 35.8614 316.084 35.8614C317.194 35.8614 318.043 35.6534 318.633 35.2372C319.257 34.7863 319.569 34.2141 319.569 33.5205C319.569 32.6881 319.136 32.0812 318.269 31.6997C317.402 31.2835 315.997 30.8327 314.055 30.3472C311.974 29.8616 310.24 29.3587 308.853 28.8385C307.466 28.2836 306.269 27.4339 305.263 26.2895C304.258 25.1103 303.755 23.5323 303.755 21.5555C303.755 19.8908 304.206 18.3822 305.107 17.0296C306.044 15.6424 307.396 14.5499 309.165 13.7523C310.969 12.9546 313.101 12.5558 315.564 12.5558C319.205 12.5558 322.066 13.4575 324.147 15.2609C326.263 17.0643 327.477 19.4573 327.789 22.4399H319.569C319.431 21.4341 318.98 20.6365 318.217 20.0469C317.489 19.4573 316.517 19.1625 315.304 19.1625C314.263 19.1625 313.466 19.3706 312.911 19.7868C312.356 20.1683 312.078 20.7058 312.078 21.3994C312.078 22.2318 312.512 22.856 313.379 23.2722C314.281 23.6884 315.668 24.1046 317.541 24.5207C319.691 25.0756 321.442 25.6305 322.795 26.1854C324.147 26.7056 325.326 27.5727 326.332 28.7865C327.373 29.9657 327.91 31.561 327.945 33.5725C327.945 35.2719 327.459 36.7978 326.488 38.1504C325.552 39.4683 324.182 40.5087 322.379 41.2717C320.61 42.0347 318.546 42.4162 316.188 42.4162ZM346.804 17.0816C347.671 15.7291 348.868 14.6366 350.394 13.8043C351.92 12.9719 353.706 12.5558 355.752 12.5558C358.145 12.5558 360.313 13.1627 362.255 14.3765C364.197 15.5904 365.723 17.3244 366.833 19.5787C367.977 21.8329 368.549 24.4514 368.549 27.4339C368.549 30.4165 367.977 33.0523 366.833 35.3412C365.723 37.5955 364.197 39.3469 362.255 40.5954C360.313 41.8093 358.145 42.4162 355.752 42.4162C353.741 42.4162 351.954 42 350.394 41.1677C348.868 40.3353 347.671 39.2602 346.804 37.9423V55.8378H337.909V12.9719H346.804V17.0816ZM359.498 27.4339C359.498 25.2144 358.873 23.4803 357.625 22.2318C356.411 20.9486 354.902 20.307 353.099 20.307C351.33 20.307 349.822 20.9486 348.573 22.2318C347.359 23.515 346.752 25.2664 346.752 27.486C346.752 29.7056 347.359 31.457 348.573 32.7402C349.822 34.0234 351.33 34.665 353.099 34.665C354.868 34.665 356.376 34.0234 357.625 32.7402C358.873 31.4223 359.498 29.6535 359.498 27.4339ZM378.861 17.8099C379.901 16.2146 381.202 14.9661 382.762 14.0644C384.323 13.128 386.057 12.6598 387.964 12.6598V22.0757H385.519C383.3 22.0757 381.635 22.5613 380.525 23.5323C379.416 24.4687 378.861 26.1334 378.861 28.5264V42H369.965V12.9719H378.861V17.8099ZM402.179 42.4162C399.335 42.4162 396.768 41.8093 394.479 40.5954C392.225 39.3816 390.439 37.6475 389.121 35.3933C387.838 33.139 387.196 30.5032 387.196 27.486C387.196 24.5034 387.855 21.885 389.173 19.6307C390.491 17.3418 392.294 15.5904 394.583 14.3765C396.872 13.1627 399.439 12.5558 402.283 12.5558C405.126 12.5558 407.693 13.1627 409.982 14.3765C412.271 15.5904 414.074 17.3418 415.392 19.6307C416.71 21.885 417.369 24.5034 417.369 27.486C417.369 30.4685 416.693 33.1043 415.34 35.3933C414.022 37.6475 412.201 39.3816 409.878 40.5954C407.589 41.8093 405.022 42.4162 402.179 42.4162ZM402.179 34.717C403.878 34.717 405.317 34.0927 406.496 32.8442C407.71 31.5957 408.317 29.8096 408.317 27.486C408.317 25.1623 407.728 23.3763 406.548 22.1277C405.404 20.8792 403.982 20.255 402.283 20.255C400.549 20.255 399.109 20.8792 397.965 22.1277C396.82 23.3416 396.248 25.1277 396.248 27.486C396.248 29.8096 396.803 31.5957 397.913 32.8442C399.057 34.0927 400.479 34.717 402.179 34.717ZM455.876 12.6598C459.483 12.6598 462.344 13.7523 464.46 15.9372C466.61 18.1221 467.685 21.1567 467.685 25.041V42H458.841V26.2374C458.841 24.3647 458.339 22.9254 457.333 21.9197C456.362 20.8792 455.009 20.359 453.275 20.359C451.541 20.359 450.171 20.8792 449.165 21.9197C448.194 22.9254 447.709 24.3647 447.709 26.2374V42H438.865V26.2374C438.865 24.3647 438.362 22.9254 437.357 21.9197C436.385 20.8792 435.033 20.359 433.299 20.359C431.565 20.359 430.195 20.8792 429.189 21.9197C428.218 22.9254 427.733 24.3647 427.733 26.2374V42H418.837V12.9719H427.733V16.6134C428.634 15.3996 429.813 14.4459 431.27 13.7523C432.727 13.024 434.374 12.6598 436.212 12.6598C438.397 12.6598 440.339 13.128 442.038 14.0644C443.773 15.0008 445.125 16.336 446.096 18.0701C447.102 16.4747 448.472 15.1742 450.206 14.1684C451.94 13.1627 453.83 12.6598 455.876 12.6598ZM483.869 42.4162C481.025 42.4162 478.458 41.8093 476.17 40.5954C473.915 39.3816 472.129 37.6475 470.811 35.3933C469.528 33.139 468.887 30.5032 468.887 27.486C468.887 24.5034 469.545 21.885 470.863 19.6307C472.181 17.3418 473.985 15.5904 476.274 14.3765C478.563 13.1627 481.129 12.5558 483.973 12.5558C486.817 12.5558 489.383 13.1627 491.672 14.3765C493.961 15.5904 495.764 17.3418 497.082 19.6307C498.4 21.885 499.059 24.5034 499.059 27.486C499.059 30.4685 498.383 33.1043 497.03 35.3933C495.712 37.6475 493.892 39.3816 491.568 40.5954C489.279 41.8093 486.713 42.4162 483.869 42.4162ZM483.869 34.717C485.568 34.717 487.007 34.0927 488.187 32.8442C489.4 31.5957 490.007 29.8096 490.007 27.486C490.007 25.1623 489.418 23.3763 488.239 22.1277C487.094 20.8792 485.672 20.255 483.973 20.255C482.239 20.255 480.799 20.8792 479.655 22.1277C478.511 23.3416 477.938 25.1277 477.938 27.486C477.938 29.8096 478.493 31.5957 479.603 32.8442C480.747 34.0927 482.169 34.717 483.869 34.717ZM516.706 34.4569V42H512.18C508.955 42 506.44 41.2197 504.637 39.659C502.833 38.0637 501.932 35.48 501.932 31.9078V20.359H498.394V12.9719H501.932V5.89699H510.827V12.9719H516.654V20.359H510.827V32.0118C510.827 32.8789 511.035 33.5031 511.452 33.8846C511.868 34.2661 512.561 34.4569 513.532 34.4569H516.706ZM522.883 9.95468C521.323 9.95468 520.039 9.50382 519.034 8.60212C518.063 7.66573 517.577 6.52125 517.577 5.16869C517.577 3.78145 518.063 2.63697 519.034 1.73526C520.039 0.798873 521.323 0.330678 522.883 0.330678C524.409 0.330678 525.658 0.798873 526.629 1.73526C527.635 2.63697 528.138 3.78145 528.138 5.16869C528.138 6.52125 527.635 7.66573 526.629 8.60212C525.658 9.50382 524.409 9.95468 522.883 9.95468ZM527.305 12.9719V42H518.409V12.9719H527.305ZM543.714 42.4162C540.87 42.4162 538.304 41.8093 536.015 40.5954C533.76 39.3816 531.974 37.6475 530.656 35.3933C529.373 33.139 528.732 30.5032 528.732 27.486C528.732 24.5034 529.391 21.885 530.709 19.6307C532.026 17.3418 533.83 15.5904 536.119 14.3765C538.408 13.1627 540.974 12.5558 543.818 12.5558C546.662 12.5558 549.228 13.1627 551.517 14.3765C553.806 15.5904 555.61 17.3418 556.927 19.6307C558.245 21.885 558.904 24.5034 558.904 27.486C558.904 30.4685 558.228 33.1043 556.875 35.3933C555.558 37.6475 553.737 39.3816 551.413 40.5954C549.124 41.8093 546.558 42.4162 543.714 42.4162ZM543.714 34.717C545.413 34.717 546.853 34.0927 548.032 32.8442C549.246 31.5957 549.852 29.8096 549.852 27.486C549.852 25.1623 549.263 23.3763 548.084 22.1277C546.939 20.8792 545.517 20.255 543.818 20.255C542.084 20.255 540.645 20.8792 539.5 22.1277C538.356 23.3416 537.783 25.1277 537.783 27.486C537.783 29.8096 538.338 31.5957 539.448 32.8442C540.593 34.0927 542.015 34.717 543.714 34.717ZM578.06 12.6598C581.458 12.6598 584.163 13.7696 586.175 15.9892C588.221 18.1741 589.244 21.1914 589.244 25.041V42H580.401V26.2374C580.401 24.2953 579.898 22.7867 578.892 21.7116C577.886 20.6365 576.534 20.0989 574.834 20.0989C573.135 20.0989 571.782 20.6365 570.777 21.7116C569.771 22.7867 569.268 24.2953 569.268 26.2374V42H560.372V12.9719H569.268V16.8215C570.17 15.5383 571.383 14.5326 572.909 13.8043C574.435 13.0413 576.152 12.6598 578.06 12.6598ZM590.406 27.4339C590.406 24.4514 590.961 21.8329 592.07 19.5787C593.215 17.3244 594.758 15.5904 596.7 14.3765C598.643 13.1627 600.81 12.5558 603.203 12.5558C605.249 12.5558 607.035 12.9719 608.561 13.8043C610.122 14.6366 611.318 15.7291 612.151 17.0816V12.9719H621.047V42H612.151V37.8903C611.284 39.2429 610.07 40.3353 608.509 41.1677C606.983 42 605.197 42.4162 603.151 42.4162C600.793 42.4162 598.643 41.8093 596.7 40.5954C594.758 39.3469 593.215 37.5955 592.07 35.3412C590.961 33.0523 590.406 30.4165 590.406 27.4339ZM612.151 27.486C612.151 25.2664 611.527 23.515 610.278 22.2318C609.064 20.9486 607.573 20.307 605.804 20.307C604.035 20.307 602.527 20.9486 601.278 22.2318C600.064 23.4803 599.458 25.2144 599.458 27.4339C599.458 29.6535 600.064 31.4223 601.278 32.7402C602.527 34.0234 604.035 34.665 605.804 34.665C607.573 34.665 609.064 34.0234 610.278 32.7402C611.527 31.457 612.151 29.7056 612.151 27.486ZM633.126 3.504V42H624.231V3.504H633.126ZM657.308 42.4162C654.464 42.4162 651.898 41.8093 649.609 40.5954C647.355 39.3816 645.568 37.6475 644.251 35.3933C642.967 33.139 642.326 30.5032 642.326 27.486C642.326 24.5034 642.985 21.885 644.303 19.6307C645.621 17.3418 647.424 15.5904 649.713 14.3765C652.002 13.1627 654.568 12.5558 657.412 12.5558C660.256 12.5558 662.822 13.1627 665.111 14.3765C667.4 15.5904 669.204 17.3418 670.522 19.6307C671.839 21.885 672.498 24.5034 672.498 27.486C672.498 30.4685 671.822 33.1043 670.47 35.3933C669.152 37.6475 667.331 39.3816 665.007 40.5954C662.718 41.8093 660.152 42.4162 657.308 42.4162ZM657.308 34.717C659.007 34.717 660.447 34.0927 661.626 32.8442C662.84 31.5957 663.447 29.8096 663.447 27.486C663.447 25.1623 662.857 23.3763 661.678 22.1277C660.533 20.8792 659.111 20.255 657.412 20.255C655.678 20.255 654.239 20.8792 653.094 22.1277C651.95 23.3416 651.378 25.1277 651.378 27.486C651.378 29.8096 651.932 31.5957 653.042 32.8442C654.187 34.0927 655.609 34.717 657.308 34.717ZM688.532 20.359H683.746V42H674.851V20.359H671.625V12.9719H674.851V12.1396C674.851 8.56744 675.874 5.86231 677.92 4.02422C679.966 2.15144 682.966 1.21505 686.92 1.21505C687.579 1.21505 688.064 1.23239 688.376 1.26707V8.8102C686.677 8.70616 685.48 8.94893 684.787 9.53851C684.093 10.1281 683.746 11.1859 683.746 12.7118V12.9719H688.532V20.359ZM704.027 20.359H699.241V42H690.345V20.359H687.12V12.9719H690.345V12.1396C690.345 8.56744 691.369 5.86231 693.415 4.02422C695.461 2.15144 698.461 1.21505 702.414 1.21505C703.073 1.21505 703.559 1.23239 703.871 1.26707V8.8102C702.172 8.70616 700.975 8.94893 700.282 9.53851C699.588 10.1281 699.241 11.1859 699.241 12.7118V12.9719H704.027V20.359ZM732.319 27.0178C732.319 27.8501 732.267 28.7171 732.163 29.6189H712.031C712.169 31.4223 712.742 32.8095 713.747 33.7806C714.788 34.717 716.054 35.1852 717.545 35.1852C719.765 35.1852 721.308 34.2488 722.175 32.376H731.643C731.157 34.2835 730.273 36.0002 728.99 37.5261C727.741 39.0521 726.163 40.2486 724.256 41.1156C722.348 41.9827 720.215 42.4162 717.857 42.4162C715.013 42.4162 712.482 41.8093 710.262 40.5954C708.042 39.3816 706.308 37.6475 705.06 35.3933C703.811 33.139 703.187 30.5032 703.187 27.486C703.187 24.4687 703.794 21.8329 705.008 19.5787C706.256 17.3244 707.99 15.5904 710.21 14.3765C712.43 13.1627 714.979 12.5558 717.857 12.5558C720.666 12.5558 723.163 13.1453 725.348 14.3245C727.533 15.5037 729.233 17.1857 730.446 19.3706C731.695 21.5555 732.319 24.1046 732.319 27.0178ZM723.215 24.6768C723.215 23.1508 722.695 21.937 721.655 21.0353C720.614 20.1336 719.314 19.6827 717.753 19.6827C716.262 19.6827 714.996 20.1162 713.955 20.9833C712.95 21.8503 712.325 23.0815 712.083 24.6768H723.215ZM742.656 17.8099C743.697 16.2146 744.997 14.9661 746.558 14.0644C748.119 13.128 749.853 12.6598 751.76 12.6598V22.0757H749.315C747.096 22.0757 745.431 22.5613 744.321 23.5323C743.211 24.4687 742.656 26.1334 742.656 28.5264V42H733.761V12.9719H742.656V17.8099ZM802.203 12.9719L794.348 42H784.516L779.938 23.1682L775.204 42H765.424L757.516 12.9719H766.412L770.522 33.7286L775.412 12.9719H784.828L789.77 33.6245L793.827 12.9719H802.203ZM806.818 9.95468C805.257 9.95468 803.974 9.50382 802.968 8.60212C801.997 7.66573 801.512 6.52125 801.512 5.16869C801.512 3.78145 801.997 2.63697 802.968 1.73526C803.974 0.798873 805.257 0.330678 806.818 0.330678C808.344 0.330678 809.592 0.798873 810.563 1.73526C811.569 2.63697 812.072 3.78145 812.072 5.16869C812.072 6.52125 811.569 7.66573 810.563 8.60212C809.592 9.50382 808.344 9.95468 806.818 9.95468ZM811.24 12.9719V42H802.344V12.9719H811.24ZM823.331 3.504V42H814.435V3.504H823.331ZM835.422 3.504V42H826.526V3.504H835.422ZM864.077 12.6598C867.476 12.6598 870.181 13.7696 872.192 15.9892C874.238 18.1741 875.262 21.1914 875.262 25.041V42H866.418V26.2374C866.418 24.2953 865.915 22.7867 864.909 21.7116C863.903 20.6365 862.551 20.0989 860.852 20.0989C859.152 20.0989 857.8 20.6365 856.794 21.7116C855.788 22.7867 855.285 24.2953 855.285 26.2374V42H846.39V12.9719H855.285V16.8215C856.187 15.5383 857.401 14.5326 858.927 13.8043C860.453 13.0413 862.169 12.6598 864.077 12.6598ZM891.405 42.4162C888.561 42.4162 885.995 41.8093 883.706 40.5954C881.452 39.3816 879.666 37.6475 878.348 35.3933C877.065 33.139 876.423 30.5032 876.423 27.486C876.423 24.5034 877.082 21.885 878.4 19.6307C879.718 17.3418 881.521 15.5904 883.81 14.3765C886.099 13.1627 888.666 12.5558 891.509 12.5558C894.353 12.5558 896.92 13.1627 899.209 14.3765C901.498 15.5904 903.301 17.3418 904.619 19.6307C905.937 21.885 906.596 24.5034 906.596 27.486C906.596 30.4685 905.919 33.1043 904.567 35.3933C903.249 37.6475 901.428 39.3816 899.105 40.5954C896.816 41.8093 894.249 42.4162 891.405 42.4162ZM891.405 34.717C893.105 34.717 894.544 34.0927 895.723 32.8442C896.937 31.5957 897.544 29.8096 897.544 27.486C897.544 25.1623 896.954 23.3763 895.775 22.1277C894.631 20.8792 893.209 20.255 891.509 20.255C889.775 20.255 888.336 20.8792 887.192 22.1277C886.047 23.3416 885.475 25.1277 885.475 27.486C885.475 29.8096 886.03 31.5957 887.14 32.8442C888.284 34.0927 889.706 34.717 891.405 34.717ZM924.242 34.4569V42H919.716C916.491 42 913.977 41.2197 912.173 39.659C910.37 38.0637 909.468 35.48 909.468 31.9078V20.359H905.931V12.9719H909.468V5.89699H918.364V12.9719H924.19V20.359H918.364V32.0118C918.364 32.8789 918.572 33.5031 918.988 33.8846C919.404 34.2661 920.098 34.4569 921.069 34.4569H924.242ZM942.615 3.504V42H933.719V3.504H942.615ZM944.041 27.4339C944.041 24.4514 944.596 21.8329 945.706 19.5787C946.85 17.3244 948.393 15.5904 950.336 14.3765C952.278 13.1627 954.445 12.5558 956.838 12.5558C958.885 12.5558 960.671 12.9719 962.197 13.8043C963.757 14.6366 964.954 15.7291 965.786 17.0816V12.9719H974.682V42H965.786V37.8903C964.919 39.2429 963.705 40.3353 962.145 41.1677C960.619 42 958.832 42.4162 956.786 42.4162C954.428 42.4162 952.278 41.8093 950.336 40.5954C948.393 39.3469 946.85 37.5955 945.706 35.3412C944.596 33.0523 944.041 30.4165 944.041 27.4339ZM965.786 27.486C965.786 25.2664 965.162 23.515 963.913 22.2318C962.699 20.9486 961.208 20.307 959.439 20.307C957.671 20.307 956.162 20.9486 954.914 22.2318C953.7 23.4803 953.093 25.2144 953.093 27.4339C953.093 29.6535 953.7 31.4223 954.914 32.7402C956.162 34.0234 957.671 34.665 959.439 34.665C961.208 34.665 962.699 34.0234 963.913 32.7402C965.162 31.457 965.786 29.7056 965.786 27.486ZM989.675 42.4162C987.143 42.4162 984.889 41.9827 982.912 41.1156C980.935 40.2486 979.375 39.0694 978.23 37.5782C977.086 36.0522 976.444 34.3528 976.305 32.48H985.097C985.201 33.4858 985.669 34.3008 986.502 34.9251C987.334 35.5493 988.357 35.8614 989.571 35.8614C990.681 35.8614 991.53 35.6534 992.12 35.2372C992.744 34.7863 993.056 34.2141 993.056 33.5205C993.056 32.6881 992.623 32.0812 991.756 31.6997C990.889 31.2835 989.484 30.8327 987.542 30.3472C985.461 29.8616 983.727 29.3587 982.34 28.8385C980.953 28.2836 979.756 27.4339 978.75 26.2895C977.745 25.1103 977.242 23.5323 977.242 21.5555C977.242 19.8908 977.693 18.3822 978.594 17.0296C979.531 15.6424 980.883 14.5499 982.652 13.7523C984.455 12.9546 986.588 12.5558 989.051 12.5558C992.692 12.5558 995.553 13.4575 997.634 15.2609C999.75 17.0643 1000.96 19.4573 1001.28 22.4399H993.056C992.918 21.4341 992.467 20.6365 991.704 20.0469C990.976 19.4573 990.004 19.1625 988.791 19.1625C987.75 19.1625 986.953 19.3706 986.398 19.7868C985.843 20.1683 985.565 20.7058 985.565 21.3994C985.565 22.2318 985.999 22.856 986.866 23.2722C987.768 23.6884 989.155 24.1046 991.028 24.5207C993.178 25.0756 994.929 25.6305 996.282 26.1854C997.634 26.7056 998.813 27.5727 999.819 28.7865C1000.86 29.9657 1001.4 31.561 1001.43 33.5725C1001.43 35.2719 1000.95 36.7978 999.975 38.1504C999.039 39.4683 997.669 40.5087 995.866 41.2717C994.097 42.0347 992.033 42.4162 989.675 42.4162ZM1019.8 34.4569V42H1015.28C1012.05 42 1009.54 41.2197 1007.73 39.659C1005.93 38.0637 1005.03 35.48 1005.03 31.9078V20.359H1001.49V12.9719H1005.03V5.89699H1013.92V12.9719H1019.75V20.359H1013.92V32.0118C1013.92 32.8789 1014.13 33.5031 1014.55 33.8846C1014.96 34.2661 1015.66 34.4569 1016.63 34.4569H1019.8ZM1043.84 20.359H1039.06V42H1030.16V20.359H1026.94V12.9719H1030.16V12.1396C1030.16 8.56744 1031.19 5.86231 1033.23 4.02422C1035.28 2.15144 1038.28 1.21505 1042.23 1.21505C1042.89 1.21505 1043.38 1.23239 1043.69 1.26707V8.8102C1041.99 8.70616 1040.79 8.94893 1040.1 9.53851C1039.4 10.1281 1039.06 11.1859 1039.06 12.7118V12.9719H1043.84V20.359ZM1057.99 42.4162C1055.14 42.4162 1052.58 41.8093 1050.29 40.5954C1048.03 39.3816 1046.25 37.6475 1044.93 35.3933C1043.65 33.139 1043 30.5032 1043 27.486C1043 24.5034 1043.66 21.885 1044.98 19.6307C1046.3 17.3418 1048.1 15.5904 1050.39 14.3765C1052.68 13.1627 1055.25 12.5558 1058.09 12.5558C1060.93 12.5558 1063.5 13.1627 1065.79 14.3765C1068.08 15.5904 1069.88 17.3418 1071.2 19.6307C1072.52 21.885 1073.18 24.5034 1073.18 27.486C1073.18 30.4685 1072.5 33.1043 1071.15 35.3933C1069.83 37.6475 1068.01 39.3816 1065.69 40.5954C1063.4 41.8093 1060.83 42.4162 1057.99 42.4162ZM1057.99 34.717C1059.69 34.717 1061.12 34.0927 1062.3 32.8442C1063.52 31.5957 1064.12 29.8096 1064.12 27.486C1064.12 25.1623 1063.54 23.3763 1062.36 22.1277C1061.21 20.8792 1059.79 20.255 1058.09 20.255C1056.36 20.255 1054.92 20.8792 1053.77 22.1277C1052.63 23.3416 1052.06 25.1277 1052.06 27.486C1052.06 29.8096 1052.61 31.5957 1053.72 32.8442C1054.86 34.0927 1056.29 34.717 1057.99 34.717ZM1083.54 17.8099C1084.58 16.2146 1085.88 14.9661 1087.44 14.0644C1089 13.128 1090.74 12.6598 1092.64 12.6598V22.0757H1090.2C1087.98 22.0757 1086.31 22.5613 1085.2 23.5323C1084.1 24.4687 1083.54 26.1334 1083.54 28.5264V42H1074.64V12.9719H1083.54V17.8099ZM1121.01 27.0178C1121.01 27.8501 1120.96 28.7171 1120.85 29.6189H1100.72C1100.86 31.4223 1101.43 32.8095 1102.44 33.7806C1103.48 34.717 1104.74 35.1852 1106.23 35.1852C1108.45 35.1852 1110 34.2488 1110.86 32.376H1120.33C1119.85 34.2835 1118.96 36.0002 1117.68 37.5261C1116.43 39.0521 1114.85 40.2486 1112.94 41.1156C1111.04 41.9827 1108.9 42.4162 1106.55 42.4162C1103.7 42.4162 1101.17 41.8093 1098.95 40.5954C1096.73 39.3816 1095 37.6475 1093.75 35.3933C1092.5 33.139 1091.88 30.5032 1091.88 27.486C1091.88 24.4687 1092.48 21.8329 1093.7 19.5787C1094.95 17.3244 1096.68 15.5904 1098.9 14.3765C1101.12 13.1627 1103.67 12.5558 1106.55 12.5558C1109.36 12.5558 1111.85 13.1453 1114.04 14.3245C1116.22 15.5037 1117.92 17.1857 1119.14 19.3706C1120.38 21.5555 1121.01 24.1046 1121.01 27.0178ZM1111.9 24.6768C1111.9 23.1508 1111.38 21.937 1110.34 21.0353C1109.3 20.1336 1108 19.6827 1106.44 19.6827C1104.95 19.6827 1103.68 20.1162 1102.64 20.9833C1101.64 21.8503 1101.01 23.0815 1100.77 24.6768H1111.9ZM1135.51 33.6765L1141.8 12.9719H1151.27L1140.97 42H1129.99L1119.69 12.9719H1129.21L1135.51 33.6765ZM1179.13 27.0178C1179.13 27.8501 1179.07 28.7171 1178.97 29.6189H1158.84C1158.98 31.4223 1159.55 32.8095 1160.55 33.7806C1161.59 34.717 1162.86 35.1852 1164.35 35.1852C1166.57 35.1852 1168.11 34.2488 1168.98 32.376H1178.45C1177.96 34.2835 1177.08 36.0002 1175.8 37.5261C1174.55 39.0521 1172.97 40.2486 1171.06 41.1156C1169.16 41.9827 1167.02 42.4162 1164.66 42.4162C1161.82 42.4162 1159.29 41.8093 1157.07 40.5954C1154.85 39.3816 1153.12 37.6475 1151.87 35.3933C1150.62 33.139 1149.99 30.5032 1149.99 27.486C1149.99 24.4687 1150.6 21.8329 1151.81 19.5787C1153.06 17.3244 1154.8 15.5904 1157.02 14.3765C1159.24 13.1627 1161.79 12.5558 1164.66 12.5558C1167.47 12.5558 1169.97 13.1453 1172.15 14.3245C1174.34 15.5037 1176.04 17.1857 1177.25 19.3706C1178.5 21.5555 1179.13 24.1046 1179.13 27.0178ZM1170.02 24.6768C1170.02 23.1508 1169.5 21.937 1168.46 21.0353C1167.42 20.1336 1166.12 19.6827 1164.56 19.6827C1163.07 19.6827 1161.8 20.1162 1160.76 20.9833C1159.76 21.8503 1159.13 23.0815 1158.89 24.6768H1170.02ZM1189.46 17.8099C1190.5 16.2146 1191.8 14.9661 1193.36 14.0644C1194.93 13.128 1196.66 12.6598 1198.57 12.6598V22.0757H1196.12C1193.9 22.0757 1192.24 22.5613 1191.13 23.5323C1190.02 24.4687 1189.46 26.1334 1189.46 28.5264V42H1180.57V12.9719H1189.46V17.8099Z" fill="#FF0000"/>
</svg>
