<svg width="56" height="56" viewBox="0 0 56 56" fill="none" xmlns="http://www.w3.org/2000/svg">
<path d="M31.3631 55.125L28 53.1875L35.75 39.625H47.375C47.8841 39.6259 48.3884 39.5262 48.8589 39.3318C49.3295 39.1374 49.757 38.852 50.117 38.492C50.477 38.132 50.7624 37.7045 50.9568 37.2339C51.1512 36.7634 51.2509 36.2591 51.25 35.75V8.625C51.2509 8.11588 51.1512 7.6116 50.9568 7.14108C50.7624 6.67055 50.477 6.24303 50.117 5.88303C49.757 5.52303 49.3295 5.23763 48.8589 5.0432C48.3884 4.84877 47.8841 4.74913 47.375 4.75H8.625C8.11588 4.74913 7.6116 4.84877 7.14108 5.0432C6.67055 5.23763 6.24303 5.52303 5.88303 5.88303C5.52303 6.24303 5.23763 6.67055 5.0432 7.14108C4.84877 7.6116 4.74913 8.11588 4.75 8.625V35.75C4.74913 36.2591 4.84877 36.7634 5.0432 37.2339C5.23763 37.7045 5.52303 38.132 5.88303 38.492C6.24303 38.852 6.67055 39.1374 7.14108 39.3318C7.6116 39.5262 8.11588 39.6259 8.625 39.625H26.0625V43.5H8.625C7.60721 43.5002 6.59935 43.2998 5.65899 42.9104C4.71864 42.521 3.86422 41.9502 3.14453 41.2305C2.42484 40.5108 1.85398 39.6564 1.46457 38.716C1.07516 37.7757 0.874822 36.7678 0.875 35.75V8.625C0.874695 7.60717 1.07495 6.59925 1.46431 5.65884C1.85368 4.71843 2.42453 3.86396 3.14424 3.14424C3.86396 2.42453 4.71843 1.85368 5.65884 1.46431C6.59925 1.07495 7.60717 0.874695 8.625 0.875H47.375C48.3928 0.874695 49.4007 1.07495 50.3412 1.46431C51.2816 1.85368 52.136 2.42453 52.8558 3.14424C53.5755 3.86396 54.1463 4.71843 54.5357 5.65884C54.9251 6.59925 55.1253 7.60717 55.125 8.625V35.75C55.1252 36.7678 54.9248 37.7757 54.5354 38.716C54.146 39.6564 53.5752 40.5108 52.8555 41.2305C52.1358 41.9502 51.2814 42.521 50.341 42.9104C49.4007 43.2998 48.3928 43.5002 47.375 43.5H38.0064L31.3631 55.125Z" fill="white"/>
</svg>
