<svg width="58" height="58" viewBox="0 0 58 58" fill="none" xmlns="http://www.w3.org/2000/svg">
<path d="M52.5625 0H5.4375C2.43464 0 0 2.43464 0 5.4375V52.5625C0 55.5654 2.43464 58 5.4375 58H52.5625C55.5654 58 58 55.5654 58 52.5625V5.4375C58 2.43464 55.5654 0 52.5625 0ZM50.3721 3.96484C51.5606 3.96484 52.5244 4.92864 52.5244 6.11719C52.5244 7.30573 51.5606 8.26953 50.3721 8.26953C49.1835 8.26953 48.2197 7.30573 48.2197 6.11719C48.2197 4.92864 49.1835 3.96484 50.3721 3.96484ZM42.3858 3.96484C43.5743 3.96484 44.5381 4.92864 44.5381 6.11719C44.5381 7.30573 43.5743 8.26953 42.3858 8.26953C41.1972 8.26953 40.2334 7.30573 40.2334 6.11719C40.2334 4.92864 41.1972 3.96484 42.3858 3.96484ZM34.3994 3.96484C35.588 3.96484 36.5518 4.92864 36.5518 6.11719C36.5518 7.30573 35.588 8.26953 34.3994 8.26953C33.2109 8.26953 32.2471 7.30573 32.2471 6.11719C32.2471 4.92864 33.2109 3.96484 34.3994 3.96484ZM53.4688 52.5625C53.4688 53.0616 53.0625 53.4688 52.5625 53.4688H5.4375C4.93748 53.4688 4.53125 53.0616 4.53125 52.5625V11.7812H53.4688V52.5625Z" fill="white"/>
<path d="M28.0938 21.75H10.875V25.375H28.0938V21.75Z" fill="white"/>
<path d="M48.0312 39.875H10.875V43.5H48.0312V39.875Z" fill="white"/>
<path d="M48.0312 21.75H34.4375V35.3438H48.0312V21.75Z" fill="white"/>
<path d="M25.9462 34.4375H28.0938V30.8125H10.875V34.4375H24.1337H25.9462Z" fill="white"/>
</svg>
