<svg width="56" height="40" viewBox="0 0 56 40" fill="none" xmlns="http://www.w3.org/2000/svg">
<path d="M34.3537 0.644043H33.8972L20.0023 8.2723H9.9593C4.46783 8.2723 0 12.7399 0 18.2316C0 23.1433 3.57675 27.2252 8.25964 28.0361L5.03984 39.3562H16.1488L19.3242 28.1928H20.0023L33.8976 35.8199H34.3542C37.296 35.8199 39.6899 33.4264 39.6899 30.4841V5.97959C39.6892 3.03797 37.2953 0.644043 34.3537 0.644043ZM13.4626 35.7986H9.75009L11.7024 28.9345H15.415L13.4626 35.7986ZM25.587 27.1998L20.9146 24.635H9.9593C6.42884 24.635 3.55711 21.7621 3.55711 18.2316C3.55711 14.7011 6.42884 11.8294 9.9593 11.8294H20.9146L25.587 9.26414V27.1998ZM36.1321 30.4841C36.1321 31.3343 35.5321 32.0463 34.7347 32.2211L29.1441 29.1526V7.31178L34.7347 4.24253C35.5328 4.41738 36.1321 5.13011 36.1321 5.98029V30.4841Z" fill="white"/>
<path d="M46.5157 10.5552L43.9717 13.0992C45.2861 14.9199 46.0699 17.1479 46.0699 19.5596C46.0699 21.972 45.2861 24.1999 43.9717 26.02L46.5157 28.564C48.462 26.0793 49.627 22.9538 49.627 19.5596C49.627 16.1654 48.462 13.04 46.5157 10.5552Z" fill="white"/>
<path d="M51.0432 6.02783L48.52 8.55103C50.9703 11.5562 52.443 15.3889 52.443 19.5597C52.443 23.7311 50.9703 27.5631 48.52 30.5683L51.0432 33.0915C54.1326 29.4337 56.0001 24.7115 56.0001 19.5597C56.0001 14.4079 54.1326 9.68569 51.0432 6.02783Z" fill="white"/>
</svg>
