<svg width="24" height="24" viewBox="0 0 24 24" fill="none" xmlns="http://www.w3.org/2000/svg">
<path fill-rule="evenodd" clip-rule="evenodd" d="M17.8002 19.817L15.6282 20.955C15.4968 21.0234 15.338 21.0118 15.2178 20.9251C15.0977 20.8384 15.0367 20.6913 15.0602 20.545L15.4752 18.134L13.7182 16.427C13.6112 16.3235 13.5726 16.1681 13.6188 16.0266C13.665 15.8851 13.7878 15.7824 13.9352 15.762L16.3632 15.41L17.4492 13.217C17.5155 13.0837 17.6515 12.9995 17.8002 12.9995C17.949 12.9995 18.085 13.0837 18.1512 13.217L19.2372 15.41L21.6652 15.762C21.8122 15.7831 21.9344 15.8859 21.9805 16.027C22.0265 16.1682 21.9885 16.3232 21.8822 16.427L20.1252 18.134L20.5392 20.544C20.5646 20.6906 20.5043 20.8389 20.3838 20.9262C20.2634 21.0135 20.1037 21.0247 19.9722 20.955L17.8002 19.817V19.817Z" stroke="#0B242B" stroke-width="1.5" stroke-linecap="round" stroke-linejoin="round"/>
<path fill-rule="evenodd" clip-rule="evenodd" d="M6.19966 19.817L4.02766 20.955C3.89621 21.0234 3.73741 21.0118 3.61725 20.9251C3.4971 20.8384 3.43612 20.6913 3.45966 20.545L3.87466 18.134L2.11766 16.427C2.01066 16.3235 1.97206 16.1681 2.01823 16.0266C2.06439 15.8851 2.18724 15.7824 2.33466 15.762L4.76266 15.41L5.84866 13.217C5.91491 13.0837 6.05087 12.9995 6.19966 12.9995C6.34845 12.9995 6.48442 13.0837 6.55066 13.217L7.63666 15.41L10.0647 15.762C10.2116 15.7831 10.3338 15.8859 10.3799 16.027C10.426 16.1682 10.3879 16.3232 10.2817 16.427L8.52466 18.134L8.93866 20.544C8.96401 20.6906 8.90373 20.8389 8.78325 20.9262C8.66278 21.0135 8.50312 21.0247 8.37166 20.955L6.19966 19.817V19.817Z" stroke="#0B242B" stroke-width="1.5" stroke-linecap="round" stroke-linejoin="round"/>
<path fill-rule="evenodd" clip-rule="evenodd" d="M12 9.81698L9.82796 10.955C9.6965 11.0234 9.53771 11.0118 9.41755 10.9251C9.29739 10.8384 9.23641 10.6913 9.25996 10.545L9.67496 8.13398L7.91796 6.42698C7.81095 6.32353 7.77235 6.16811 7.81852 6.02662C7.86469 5.88514 7.98754 5.78239 8.13496 5.76198L10.563 5.40998L11.649 3.21698C11.7152 3.08375 11.8512 2.99951 12 2.99951C12.1487 2.99951 12.2847 3.08375 12.351 3.21698L13.437 5.40998L15.865 5.76198C16.0119 5.78312 16.1341 5.88587 16.1802 6.02702C16.2262 6.16816 16.1882 6.32322 16.082 6.42698L14.325 8.13398L14.739 10.544C14.7643 10.6906 14.704 10.8389 14.5835 10.9262C14.4631 11.0135 14.3034 11.0247 14.172 10.955L12 9.81698V9.81698Z" stroke="#0B242B" stroke-width="1.5" stroke-linecap="round" stroke-linejoin="round"/>
</svg>
